<mxfile host="app.diagrams.net" agent="Mozilla/5.0 (Windows NT 10.0; Win64; x64; rv:131.0) Gecko/20100101 Firefox/131.0" version="24.7.17">
  <diagram name="PÃ¡gina-1" id="2UFubnlOPNcLVtzOg3cz">
    <mxGraphModel dx="1290" dy="537" grid="1" gridSize="10" guides="1" tooltips="1" connect="1" arrows="1" fold="1" page="1" pageScale="1" pageWidth="827" pageHeight="1169" math="0" shadow="0">
      <root>
        <mxCell id="0" />
        <mxCell id="1" parent="0" />
        <mxCell id="LAw6QS3u9CyFXUZ_AV9O-2" value="Vending machine" style="swimlane;whiteSpace=wrap;html=1;swimlaneLine=1;strokeColor=default;fillColor=#FFFFFF;fillStyle=auto;" vertex="1" parent="1">
          <mxGeometry x="220" y="50" width="400" height="430" as="geometry">
            <mxRectangle x="220" y="50" width="130" height="30" as="alternateBounds" />
          </mxGeometry>
        </mxCell>
        <mxCell id="LAw6QS3u9CyFXUZ_AV9O-20" style="edgeStyle=orthogonalEdgeStyle;rounded=0;orthogonalLoop=1;jettySize=auto;html=1;entryX=1;entryY=0.5;entryDx=0;entryDy=0;dashed=1;exitX=1;exitY=0.5;exitDx=0;exitDy=0;" edge="1" parent="LAw6QS3u9CyFXUZ_AV9O-2" source="LAw6QS3u9CyFXUZ_AV9O-7" target="LAw6QS3u9CyFXUZ_AV9O-10">
          <mxGeometry relative="1" as="geometry">
            <Array as="points">
              <mxPoint x="360" y="170" />
              <mxPoint x="360" y="350" />
            </Array>
          </mxGeometry>
        </mxCell>
        <mxCell id="LAw6QS3u9CyFXUZ_AV9O-5" value="choose product" style="ellipse;whiteSpace=wrap;html=1;" vertex="1" parent="LAw6QS3u9CyFXUZ_AV9O-2">
          <mxGeometry x="40" y="40" width="90" height="60" as="geometry" />
        </mxCell>
        <mxCell id="LAw6QS3u9CyFXUZ_AV9O-7" value="insert money" style="ellipse;whiteSpace=wrap;html=1;" vertex="1" parent="LAw6QS3u9CyFXUZ_AV9O-2">
          <mxGeometry x="40" y="140" width="90" height="60" as="geometry" />
        </mxCell>
        <mxCell id="LAw6QS3u9CyFXUZ_AV9O-13" style="edgeStyle=orthogonalEdgeStyle;rounded=0;orthogonalLoop=1;jettySize=auto;html=1;entryX=0;entryY=0.5;entryDx=0;entryDy=0;endArrow=classic;endFill=1;dashed=1;" edge="1" parent="LAw6QS3u9CyFXUZ_AV9O-2" source="LAw6QS3u9CyFXUZ_AV9O-8" target="LAw6QS3u9CyFXUZ_AV9O-10">
          <mxGeometry relative="1" as="geometry" />
        </mxCell>
        <mxCell id="LAw6QS3u9CyFXUZ_AV9O-8" value="cancel operation" style="ellipse;whiteSpace=wrap;html=1;" vertex="1" parent="LAw6QS3u9CyFXUZ_AV9O-2">
          <mxGeometry x="40" y="320" width="90" height="60" as="geometry" />
        </mxCell>
        <mxCell id="LAw6QS3u9CyFXUZ_AV9O-14" style="edgeStyle=orthogonalEdgeStyle;rounded=0;orthogonalLoop=1;jettySize=auto;html=1;entryX=0;entryY=0.5;entryDx=0;entryDy=0;dashed=1;" edge="1" parent="LAw6QS3u9CyFXUZ_AV9O-2" source="LAw6QS3u9CyFXUZ_AV9O-9" target="LAw6QS3u9CyFXUZ_AV9O-11">
          <mxGeometry relative="1" as="geometry" />
        </mxCell>
        <mxCell id="LAw6QS3u9CyFXUZ_AV9O-9" value="confirm operation" style="ellipse;whiteSpace=wrap;html=1;" vertex="1" parent="LAw6QS3u9CyFXUZ_AV9O-2">
          <mxGeometry x="40" y="230" width="90" height="60" as="geometry" />
        </mxCell>
        <mxCell id="LAw6QS3u9CyFXUZ_AV9O-10" value="return money" style="ellipse;whiteSpace=wrap;html=1;" vertex="1" parent="LAw6QS3u9CyFXUZ_AV9O-2">
          <mxGeometry x="220" y="320" width="90" height="60" as="geometry" />
        </mxCell>
        <mxCell id="LAw6QS3u9CyFXUZ_AV9O-15" style="edgeStyle=orthogonalEdgeStyle;rounded=0;orthogonalLoop=1;jettySize=auto;html=1;entryX=0.5;entryY=0;entryDx=0;entryDy=0;dashed=1;startArrow=classic;startFill=1;endArrow=none;endFill=0;" edge="1" parent="LAw6QS3u9CyFXUZ_AV9O-2" source="LAw6QS3u9CyFXUZ_AV9O-11" target="LAw6QS3u9CyFXUZ_AV9O-10">
          <mxGeometry relative="1" as="geometry" />
        </mxCell>
        <mxCell id="LAw6QS3u9CyFXUZ_AV9O-11" value="check for change" style="ellipse;whiteSpace=wrap;html=1;" vertex="1" parent="LAw6QS3u9CyFXUZ_AV9O-2">
          <mxGeometry x="220" y="230" width="90" height="60" as="geometry" />
        </mxCell>
        <mxCell id="LAw6QS3u9CyFXUZ_AV9O-22" value="&amp;lt;&amp;lt;include&amp;gt;&amp;gt;" style="text;html=1;align=center;verticalAlign=middle;whiteSpace=wrap;rounded=0;" vertex="1" parent="LAw6QS3u9CyFXUZ_AV9O-2">
          <mxGeometry x="170" y="130" width="60" height="30" as="geometry" />
        </mxCell>
        <mxCell id="LAw6QS3u9CyFXUZ_AV9O-24" value="&amp;lt;&amp;lt;include&amp;gt;&amp;gt;" style="text;html=1;align=center;verticalAlign=middle;whiteSpace=wrap;rounded=0;" vertex="1" parent="LAw6QS3u9CyFXUZ_AV9O-2">
          <mxGeometry x="150" y="210" width="60" height="30" as="geometry" />
        </mxCell>
        <mxCell id="LAw6QS3u9CyFXUZ_AV9O-23" value="&amp;lt;&amp;lt;include&amp;gt;&amp;gt;" style="text;html=1;align=center;verticalAlign=middle;whiteSpace=wrap;rounded=0;" vertex="1" parent="LAw6QS3u9CyFXUZ_AV9O-2">
          <mxGeometry x="150" y="330" width="60" height="30" as="geometry" />
        </mxCell>
        <mxCell id="LAw6QS3u9CyFXUZ_AV9O-25" value="&amp;lt;&amp;lt;exclude&amp;gt;&amp;gt;" style="text;html=1;align=center;verticalAlign=middle;whiteSpace=wrap;rounded=0;" vertex="1" parent="LAw6QS3u9CyFXUZ_AV9O-2">
          <mxGeometry x="270" y="290" width="60" height="30" as="geometry" />
        </mxCell>
        <mxCell id="LAw6QS3u9CyFXUZ_AV9O-16" style="rounded=0;orthogonalLoop=1;jettySize=auto;html=1;entryX=0;entryY=0.5;entryDx=0;entryDy=0;endArrow=none;endFill=0;" edge="1" parent="1" source="LAw6QS3u9CyFXUZ_AV9O-4" target="LAw6QS3u9CyFXUZ_AV9O-5">
          <mxGeometry relative="1" as="geometry" />
        </mxCell>
        <mxCell id="LAw6QS3u9CyFXUZ_AV9O-18" style="rounded=0;orthogonalLoop=1;jettySize=auto;html=1;entryX=0;entryY=0.5;entryDx=0;entryDy=0;endArrow=none;endFill=0;" edge="1" parent="1" source="LAw6QS3u9CyFXUZ_AV9O-4" target="LAw6QS3u9CyFXUZ_AV9O-9">
          <mxGeometry relative="1" as="geometry" />
        </mxCell>
        <mxCell id="LAw6QS3u9CyFXUZ_AV9O-19" style="rounded=0;orthogonalLoop=1;jettySize=auto;html=1;entryX=0;entryY=0.5;entryDx=0;entryDy=0;endArrow=none;endFill=0;" edge="1" parent="1" source="LAw6QS3u9CyFXUZ_AV9O-4" target="LAw6QS3u9CyFXUZ_AV9O-8">
          <mxGeometry relative="1" as="geometry" />
        </mxCell>
        <mxCell id="LAw6QS3u9CyFXUZ_AV9O-26" style="rounded=0;orthogonalLoop=1;jettySize=auto;html=1;entryX=0;entryY=0.5;entryDx=0;entryDy=0;endArrow=none;endFill=0;" edge="1" parent="1" source="LAw6QS3u9CyFXUZ_AV9O-4" target="LAw6QS3u9CyFXUZ_AV9O-7">
          <mxGeometry relative="1" as="geometry" />
        </mxCell>
        <mxCell id="LAw6QS3u9CyFXUZ_AV9O-4" value="Customer" style="shape=umlActor;verticalLabelPosition=bottom;verticalAlign=top;html=1;outlineConnect=0;" vertex="1" parent="1">
          <mxGeometry x="100" y="230" width="30" height="60" as="geometry" />
        </mxCell>
      </root>
    </mxGraphModel>
  </diagram>
</mxfile>
